<svg width="459" height="546" viewBox="0 0 459 546" fill="none" xmlns="http://www.w3.org/2000/svg">
<path d="M334.456 545.941C330.345 545.957 326.333 544.678 322.992 542.286L165.97 428.665L8.94696 542.286C5.59229 544.714 1.55072 546.015 -2.59343 546C-6.73757 545.985 -10.7696 544.655 -14.1065 542.202C-17.4434 539.749 -19.9123 536.301 -21.1563 532.355C-22.4003 528.41 -22.3549 524.172 -21.0266 520.254L40.2147 339.21L-118.505 230.574C-121.943 228.223 -124.538 224.837 -125.91 220.91C-127.283 216.982 -127.361 212.72 -126.133 208.745C-124.906 204.771 -122.437 201.292 -119.088 198.817C-115.738 196.343 -111.684 195.002 -107.517 194.991H88.2946L147.387 13.4839C148.66 9.56521 151.144 6.14966 154.482 3.72724C157.821 1.30481 161.842 0 165.97 0C170.097 0 174.118 1.30481 177.457 3.72724C180.795 6.14966 183.279 9.56521 184.552 13.4839L243.644 195.052H439.456C443.628 195.05 447.692 196.381 451.051 198.851C454.41 201.321 456.889 204.799 458.124 208.777C459.36 212.755 459.286 217.023 457.915 220.956C456.544 224.889 453.947 228.281 450.505 230.634L291.724 339.21L352.929 520.205C353.921 523.135 354.2 526.259 353.743 529.318C353.286 532.378 352.106 535.284 350.302 537.799C348.497 540.313 346.119 542.363 343.364 543.779C340.609 545.195 337.555 545.936 334.456 545.941Z" fill="#6695FF" fill-opacity="0.24"/>
</svg>
