<svg width="457" height="560" viewBox="0 0 457 560" fill="none" xmlns="http://www.w3.org/2000/svg">
<path d="M405.481 217.97C386.668 204.022 363.556 193.782 339.153 188.259C335.146 187.358 331.479 185.335 328.578 182.428C325.678 179.52 323.664 175.848 322.773 171.839C312.292 125.143 289.73 85.0997 256.566 54.7578C218.014 19.4306 167.032 0 113 0C65.4984 0 21.625 14.8887 -13.8097 43.0672C-37.8249 62.1949 -57.1555 86.5535 -70.3278 114.286C-71.756 117.32 -73.8741 119.979 -76.513 122.048C-79.1519 124.118 -82.2383 125.541 -85.5256 126.205C-121.471 133.461 -153.923 148.874 -178.701 170.71C-212.913 200.944 -231 241.136 -231 287.025C-231 333.411 -211.529 375.712 -176.188 406.296C-142.433 435.442 -96.9878 451.5 -48.25 451.5H91.5V245.409L42.1978 294.711C40.1395 296.769 37.6847 298.388 34.9822 299.469C32.2798 300.551 29.3859 301.072 26.476 301.001C23.5661 300.931 20.7008 300.271 18.0537 299.06C15.4066 297.849 13.033 296.114 11.0766 293.959C3.28281 285.399 4.03531 272.056 12.2188 263.872L97.8022 178.302C101.834 174.273 107.3 172.01 113 172.01C118.7 172.01 124.166 174.273 128.198 178.302L213.781 263.845C222.22 272.297 222.704 286.152 214.305 294.631C212.313 296.643 209.943 298.242 207.33 299.336C204.718 300.429 201.916 300.996 199.084 301.004C196.252 301.011 193.447 300.459 190.829 299.379C188.211 298.299 185.832 296.713 183.829 294.711L134.5 245.409V451.5H301.125C343.238 451.5 381.629 439.675 409.23 418.215C440.485 393.893 457 359.09 457 317.663C457 277.431 439.182 242.937 405.481 217.97ZM91.5 538.064C91.5 543.766 93.7652 549.235 97.7972 553.267C101.829 557.299 107.298 559.564 113 559.564C118.702 559.564 124.171 557.299 128.203 553.267C132.235 549.235 134.5 543.766 134.5 538.064V451.5H91.5V538.064Z" fill="#6695FF" fill-opacity="0.22"/>
</svg>
